<?xml version="1.0" encoding="utf-8"?>
<!-- Generator: Adobe Illustrator 23.0.6, SVG Export Plug-In . SVG Version: 6.00 Build 0)  -->
<svg version="1.1" id="Layer_1" xmlns="http://www.w3.org/2000/svg" xmlns:xlink="http://www.w3.org/1999/xlink" x="0px" y="0px"
	 viewBox="0 0 1280 1024" style="enable-background:new 0 0 1280 1024;" xml:space="preserve">
<g>
	<path d="M154.49,758.13c0,38.53-25.98,61.03-62.42,61.03H33.83V697.1h58.24C128.51,697.1,154.49,722.21,154.49,758.13z
		 M38.89,788.64h53.18c24.24,0,57.89-8.02,57.89-30.69c0-22.32-32.43-30.34-57.89-30.34H38.89V788.64z"/>
	<path d="M269.39,788.64v30.51H165.65V697.1h103.75v30.51h-99.04v28.07h84.74v5.06h-84.74v27.9H269.39z"/>
	<path d="M343.85,694.66c32.96,0,57.02,16.74,65.56,48.82l-7.32,1.39c-14.3-15.87-34.17-19.53-54.05-19.53h-9.42
		c-19.01,0-52.13,5.23-52.13,19.35c0,7.32,9.07,10.64,40.63,10.64h47.25c11.16,0,31.73,1.22,31.73,18.31
		c0,24.24-23.37,48.12-59.98,48.12c-39.93,0-59.28-20.23-67.48-48.82l7.15-1.39c15.17,14.99,30.69,19.88,54.23,19.88h9.42
		c20.58,0,51.44-6.45,51.44-19.7c0-11.68-21.45-11.68-47.08-11.68H314.9c-16.22,0-34-1.74-34-17.26
		C280.9,727.97,297.12,694.66,343.85,694.66z"/>
	<path d="M440.79,671.12c0,7.67-6.28,13.95-13.95,13.95s-13.95-6.28-13.95-13.95c0-7.85,6.28-14.12,13.95-14.12
		S440.79,663.28,440.79,671.12z M429.28,697.1v122.05h-5.06V697.1H429.28z"/>
	<path d="M508.09,791.26h9.42c20.75,0,55.8-8.37,58.93-29.12h-58.41v-5.06h63.47v62.07h-5.06v-36.09
		c-9.76,22.67-33.13,38.71-59.46,38.71h-8.2c-34.87,0-64.51-27.03-64.51-63.82c0-36.44,29.47-63.29,64.51-63.29h8.2
		c29.12,0,55.97,20.23,62.77,48.47l-8.02,1.57c-9.42-11.51-30.17-19.53-54.23-19.53h-9.42c-32.43,0-59.28,14.82-59.28,33.13
		C448.81,776.44,475.66,791.26,508.09,791.26z"/>
	<path d="M597.02,819.16h-5.06V697.1h30.51l92.06,107.23V697.1h5.06v122.05h-30.51l-92.06-107.23V819.16z"/>
	<path d="M859.61,760.57h-79.68v58.41h-4.88V697.1h98.69v30.51h-93.81v27.9h79.68V760.57z"/>
	<path d="M987.94,788.64v30.51H884.19V697.1h103.75v30.51H888.9v28.07h84.74v5.06H888.9v27.9H987.94z"/>
	<path d="M1062.39,694.66c32.96,0,57.02,16.74,65.56,48.82l-7.32,1.39c-14.3-15.87-34.17-19.53-54.05-19.53h-9.42
		c-19.01,0-52.13,5.23-52.13,19.35c0,7.32,9.07,10.64,40.63,10.64h47.25c11.16,0,31.73,1.22,31.73,18.31
		c0,24.24-23.37,48.12-59.98,48.12c-39.93,0-59.28-20.23-67.48-48.82l7.15-1.39c15.17,14.99,30.69,19.88,54.23,19.88h9.42
		c20.58,0,51.44-6.45,51.44-19.7c0-11.68-21.45-11.68-47.08-11.68h-38.88c-16.22,0-34-1.74-34-17.26
		C999.45,727.97,1015.66,694.66,1062.39,694.66z"/>
	<path d="M1187.93,819.16v-91.54h-58.24V697.1h121.71v30.51h-58.41v91.54H1187.93z"/>
</g>
<g>
	<path d="M95.14,413.96h126.5v-126.5h15.95v126.5h127.05v15.95H237.59v126.5h-15.95v-126.5H95.14V413.96z"/>
	<path d="M447.69,410.11c27.5-16.5,81.95-30.25,142.45-30.25c87.45,0,171.6,28.05,171.6,80.3v11c0,96.25-83.6,151.25-167.2,151.25
		c-85.25,0-169.95-56.1-185.9-141.9l24.2-5.5c31.35,40.15,108.35,52.8,163.35,52.8c67.65,0,151.8-19.8,151.8-64.9
		c0-45.65-84.15-67.1-155.1-67.1c-42.9,0-106.7,7.7-145.2,34.65h-17.6l14.3-200.75h293.7v96.25H453.74L447.69,410.11z"/>
	<path d="M966.88,622.41c-82.5,0-177.1-52.25-177.1-140.25c0-44.55,64.9-60.5,92.95-67.1c-29.7-7.15-80.3-19.8-80.3-58.85
		c0-77.55,77.55-133.65,165.55-134.2c84.15-0.55,166.1,56.65,166.1,134.2c0,39.6-50.05,51.7-80.85,58.85
		c29.15,6.6,93.5,22.55,93.5,67.1C1146.73,570.16,1049.38,622.41,966.88,622.41z M805.73,482.16c0,34.65,108.35,45.1,162.25,45.1
		s162.8-10.45,162.8-45.65c0-31.35-69.85-57.2-162.8-57.2C874.48,424.41,805.73,450.26,805.73,482.16z M967.98,407.91
		c66,0,150.7-15.95,150.7-50.05c0-27.5-94.05-40.7-150.7-40.7c-57.75,0-150.7,13.75-150.7,40.7
		C817.28,390.86,899.78,407.91,967.98,407.91z"/>
</g>
</svg>
