<?xml version="1.0" encoding="utf-8"?>
<!-- Generator: Adobe Illustrator 23.0.6, SVG Export Plug-In . SVG Version: 6.00 Build 0)  -->
<svg version="1.1" id="Layer_1" xmlns="http://www.w3.org/2000/svg" xmlns:xlink="http://www.w3.org/1999/xlink" x="0px" y="0px"
	 viewBox="0 0 172 30" style="enable-background:new 0 0 172 30;" xml:space="preserve">
<style type="text/css">
	.st0{fill:#FFF7F7;}
</style>
<g>
	<path class="st0" d="M0.7,14.5h9.2V5.3H11v9.2h9.2v1.2H11v9.2H9.9v-9.2H0.7V14.5z"/>
	<path class="st0" d="M26.3,14.2c2-1.2,6-2.2,10.4-2.2c6.4,0,12.5,2,12.5,5.8v0.8c0,7-6.1,11-12.2,11c-6.2,0-12.4-4.1-13.5-10.3
		l1.8-0.4c2.3,2.9,7.9,3.8,11.9,3.8c4.9,0,11-1.4,11-4.7s-6.1-4.9-11.3-4.9c-3.1,0-7.8,0.6-10.6,2.5H25L26,1h21.4v7H26.7L26.3,14.2z
		"/>
	<path class="st0" d="M64.1,29.7c-6,0-12.9-3.8-12.9-10.2c0-3.2,4.7-4.4,6.8-4.9c-2.2-0.5-5.8-1.4-5.8-4.3c0-5.6,5.6-9.7,12-9.8
		c6.1,0,12.1,4.1,12.1,9.8c0,2.9-3.6,3.8-5.9,4.3c2.1,0.5,6.8,1.6,6.8,4.9C77.1,25.9,70.1,29.7,64.1,29.7z M52.3,19.5
		c0,2.5,7.9,3.3,11.8,3.3S76,22,76,19.4c0-2.3-5.1-4.2-11.8-4.2C57.3,15.3,52.3,17.2,52.3,19.5z M64.1,14.1c4.8,0,11-1.2,11-3.6
		c0-2-6.8-3-11-3s-11,1-11,3C53.2,12.8,59.2,14.1,64.1,14.1z"/>
	<path class="st0" d="M96.6,24.9c0,2.6-1.8,4.2-4.3,4.2h-4v-8.4h4C94.8,20.7,96.6,22.4,96.6,24.9z M88.6,27h3.7c1.7,0,4-0.5,4-2.1
		c0-1.5-2.2-2.1-4-2.1h-3.7V27z"/>
	<path class="st0" d="M104.5,27v2.1h-7.1v-8.4h7.1v2.1h-6.8v1.9h5.8v0.4h-5.8V27H104.5z"/>
	<path class="st0" d="M109.6,20.5c2.3,0,3.9,1.1,4.5,3.4l-0.5,0.1c-1-1.1-2.3-1.3-3.7-1.3h-0.7c-1.3,0-3.6,0.4-3.6,1.3
		c0,0.5,0.6,0.7,2.8,0.7h3.2c0.8,0,2.2,0.1,2.2,1.3c0,1.7-1.6,3.3-4.1,3.3c-2.8,0-4.1-1.4-4.6-3.4l0.5-0.1c1,1,2.1,1.4,3.7,1.4h0.7
		c1.4,0,3.5-0.4,3.5-1.4c0-0.8-1.5-0.8-3.2-0.8h-2.7c-1.1,0-2.3-0.1-2.3-1.2C105.3,22.8,106.4,20.5,109.6,20.5z"/>
	<path class="st0" d="M116.3,18.9c0,0.5-0.4,1-1,1s-1-0.4-1-1c0-0.5,0.4-1,1-1S116.3,18.4,116.3,18.9z M115.5,20.7v8.4h-0.3v-8.4
		H115.5z"/>
	<path class="st0" d="M120.9,27.2h0.7c1.4,0,3.8-0.6,4.1-2h-4v-0.4h4.4v4.3h-0.3v-2.5c-0.7,1.6-2.3,2.7-4.1,2.7H121
		c-2.4,0-4.4-1.9-4.4-4.4s2-4.4,4.4-4.4h0.6c2,0,3.8,1.4,4.3,3.3l-0.6,0.1c-0.7-0.8-2.1-1.3-3.7-1.3h-0.7c-2.2,0-4.1,1-4.1,2.3
		C116.8,26.1,118.7,27.2,120.9,27.2z"/>
	<path class="st0" d="M127,29.1h-0.3v-8.4h2.1l6.3,7.4v-7.4h0.4v8.4h-2.1l-6.3-7.4C127,21.7,127,29.1,127,29.1z"/>
	<path class="st0" d="M145.1,25h-5.5v4h-0.3v-8.4h6.8v2.1h-6.4v1.9h5.5V25H145.1z"/>
	<path class="st0" d="M153.9,27v2.1h-7.1v-8.4h7.1v2.1h-6.8v1.9h5.8v0.4h-5.8V27C147.1,27,153.9,27,153.9,27z"/>
	<path class="st0" d="M159.1,20.5c2.3,0,3.9,1.1,4.5,3.4l-0.5,0.1c-1-1.1-2.4-1.3-3.7-1.3h-0.6c-1.3,0-3.6,0.4-3.6,1.3
		c0,0.5,0.6,0.7,2.8,0.7h3.2c0.8,0,2.2,0.1,2.2,1.3c0,1.7-1.6,3.3-4.1,3.3c-2.8,0-4.1-1.4-4.6-3.4l0.5-0.1c1,1,2.1,1.4,3.7,1.4h0.6
		c1.4,0,3.5-0.4,3.5-1.4c0-0.8-1.5-0.8-3.2-0.8H157c-1.1,0-2.3-0.1-2.3-1.2C154.7,22.8,155.8,20.5,159.1,20.5z"/>
	<path class="st0" d="M167.7,29.1v-6.3h-4v-2.1h8.4v2.1h-4v6.3C168,29.1,167.7,29.1,167.7,29.1z"/>
</g>
</svg>
