<?xml version="1.0" encoding="utf-8"?>
<!-- Generator: Adobe Illustrator 23.0.6, SVG Export Plug-In . SVG Version: 6.00 Build 0)  -->
<svg version="1.1" id="Layer_1" xmlns="http://www.w3.org/2000/svg" xmlns:xlink="http://www.w3.org/1999/xlink" x="0px" y="0px"
	 viewBox="0 0 172 30" style="enable-background:new 0 0 172 30;" xml:space="preserve">
<g>
	<path d="M0.66,14.52h9.2v-9.2h1.16v9.2h9.24v1.16h-9.24v9.2H9.86v-9.2h-9.2V14.52z"/>
	<path d="M26.3,14.24c2-1.2,5.96-2.2,10.36-2.2c6.36,0,12.48,2.04,12.48,5.84v0.8c0,7-6.08,11-12.16,11
		c-6.2,0-12.36-4.08-13.52-10.32l1.76-0.4c2.28,2.92,7.88,3.84,11.88,3.84c4.92,0,11.04-1.44,11.04-4.72
		c0-3.32-6.12-4.88-11.28-4.88c-3.12,0-7.76,0.56-10.56,2.52h-1.28l1.04-14.6h21.36v7H26.74L26.3,14.24z"/>
	<path d="M64.06,29.68c-6,0-12.88-3.8-12.88-10.2c0-3.24,4.72-4.4,6.76-4.88c-2.16-0.52-5.84-1.44-5.84-4.28
		c0-5.64,5.64-9.72,12.04-9.76c6.12-0.04,12.08,4.12,12.08,9.76c0,2.88-3.64,3.76-5.88,4.28c2.12,0.48,6.8,1.64,6.8,4.88
		C77.14,25.88,70.06,29.68,64.06,29.68z M52.34,19.48c0,2.52,7.88,3.28,11.8,3.28S75.98,22,75.98,19.44c0-2.28-5.08-4.16-11.84-4.16
		C57.34,15.28,52.34,17.16,52.34,19.48z M64.14,14.08c4.8,0,10.96-1.16,10.96-3.64c0-2-6.84-2.96-10.96-2.96
		c-4.2,0-10.96,1-10.96,2.96C53.18,12.84,59.18,14.08,64.14,14.08z"/>
	<path d="M96.56,24.88c0,2.65-1.79,4.2-4.29,4.2h-4.01v-8.4h4.01C94.78,20.68,96.56,22.41,96.56,24.88z M88.61,26.98h3.66
		c1.67,0,3.98-0.55,3.98-2.11c0-1.54-2.23-2.09-3.98-2.09h-3.66V26.98z"/>
	<path d="M104.47,26.98v2.1h-7.14v-8.4h7.14v2.1h-6.81v1.93h5.83v0.35h-5.83v1.92H104.47z"/>
	<path d="M109.6,20.51c2.27,0,3.92,1.15,4.51,3.36l-0.5,0.1c-0.98-1.09-2.35-1.34-3.72-1.34h-0.65c-1.31,0-3.59,0.36-3.59,1.33
		c0,0.5,0.62,0.73,2.79,0.73h3.25c0.77,0,2.18,0.08,2.18,1.26c0,1.67-1.61,3.31-4.13,3.31c-2.75,0-4.08-1.39-4.64-3.36l0.49-0.1
		c1.04,1.03,2.11,1.37,3.73,1.37h0.65c1.42,0,3.54-0.44,3.54-1.36c0-0.8-1.48-0.8-3.24-0.8h-2.67c-1.12,0-2.34-0.12-2.34-1.19
		C105.27,22.81,106.38,20.51,109.6,20.51z"/>
	<path d="M116.27,18.9c0,0.53-0.43,0.96-0.96,0.96s-0.96-0.43-0.96-0.96c0-0.54,0.43-0.97,0.96-0.97S116.27,18.36,116.27,18.9z
		 M115.48,20.68v8.4h-0.35v-8.4H115.48z"/>
	<path d="M120.9,27.16h0.65c1.43,0,3.84-0.58,4.05-2h-4.02v-0.35h4.37v4.27h-0.35V26.6c-0.67,1.56-2.28,2.66-4.09,2.66h-0.56
		c-2.4,0-4.44-1.86-4.44-4.39c0-2.51,2.03-4.35,4.44-4.35h0.56c2,0,3.85,1.39,4.32,3.33l-0.55,0.11c-0.65-0.79-2.07-1.34-3.73-1.34
		h-0.65c-2.23,0-4.08,1.02-4.08,2.28C116.82,26.14,118.67,27.16,120.9,27.16z"/>
	<path d="M127.02,29.08h-0.35v-8.4h2.1l6.33,7.38v-7.38h0.35v8.4h-2.1l-6.33-7.38V29.08z"/>
	<path d="M145.09,25.05h-5.48v4.02h-0.34v-8.38h6.79v2.1h-6.45v1.92h5.48V25.05z"/>
	<path d="M153.92,26.98v2.1h-7.14v-8.4h7.14v2.1h-6.81v1.93h5.83v0.35h-5.83v1.92H153.92z"/>
	<path d="M159.05,20.51c2.27,0,3.92,1.15,4.51,3.36l-0.5,0.1c-0.98-1.09-2.35-1.34-3.72-1.34h-0.65c-1.31,0-3.59,0.36-3.59,1.33
		c0,0.5,0.62,0.73,2.79,0.73h3.25c0.77,0,2.18,0.08,2.18,1.26c0,1.67-1.61,3.31-4.13,3.31c-2.75,0-4.08-1.39-4.64-3.36l0.49-0.1
		c1.04,1.03,2.11,1.37,3.73,1.37h0.65c1.42,0,3.54-0.44,3.54-1.36c0-0.8-1.48-0.8-3.24-0.8h-2.67c-1.12,0-2.34-0.12-2.34-1.19
		C154.72,22.81,155.83,20.51,159.05,20.51z"/>
	<path d="M167.69,29.08v-6.3h-4.01v-2.1h8.37v2.1h-4.02v6.3H167.69z"/>
</g>
</svg>
